PathFileType	4	(X/Y/Z)	Patient4_TMGait_0pt4_03_right_07.trc.trc
DataRate	CameraRate	NumFrames	NumMarkers	Units	OrigDataRate	OrigDataStartFrame	OrigNumFrames
76.923076923077	76.923076923077	6	33	mm	76.923076923077	36	       141
Frame#	Time	Sacral			L.Shoulder			Chest			R.Shoulder			Neck			R.ASIS			L.ASIS			R.Thigh.Superior			R.Thigh.Lateral			R.Thigh.Inferior			R.Patella			L.Thigh.Superior			L.Thigh.Lateral			L.Thigh.Inferior			L.Patella			L.Shank.Superior			L.Shank.Lateral			L.Shank.Inferior			R.Shank.Superior			R.Shank.Lateral			R.Shank.Inferior			R.Heel			R.Midfoot.Superior			R.Midfoot.Lateral			R.Toe			L.Heel			L.Midfoot.Lateral			L.Midfoot.Superior			L.Toe			L.Elbow			L.Wrist			R.Elbow			R.Wrist			
		X1	Y1	Z1	X2	Y2	Z2	X3	Y3	Z3	X4	Y4	Z4	X5	Y5	Z5	X6	Y6	Z6	X7	Y7	Z7	X8	Y8	Z8	X9	Y9	Z9	X10	Y10	Z10	X11	Y11	Z11	X12	Y12	Z12	X13	Y13	Z13	X14	Y14	Z14	X15	Y15	Z15	X16	Y16	Z16	X17	Y17	Z17	X18	Y18	Z18	X19	Y19	Z19	X20	Y20	Z20	X21	Y21	Z21	X22	Y22	Z22	X23	Y23	Z23	X24	Y24	Z24	X25	Y25	Z25	X26	Y26	Z26	X27	Y27	Z27	X28	Y28	Z28	X29	Y29	Z29	X30	Y30	Z30	X31	Y31	Z31	X32	Y32	Z32	X33	Y33	Z33	

36	8.565000000000	827.096961378160	999.987320669132	471.015316743024	1001.544806837421	1431.441890092822	291.359895519498	1092.010135784219	1372.367582356677	463.311699658739	987.792787996080	1443.941492522466	626.752792475864	968.254429771682	1495.947142443426	445.312845596036	1050.212756895314	944.650648378307	606.710628712752	1055.635174886878	965.399350199627	330.635850442757	1108.909698956911	748.349538161889	581.302336408605	1034.804835780810	635.297823384148	642.896236721071	1120.668258434542	586.171017532554	568.140581811628	1129.322959255612	496.836196132532	579.352339995607	1070.460302665077	737.981488706138	349.583365842711	963.732634069335	635.845453464084	280.514831286521	1035.931392365755	543.570976356966	337.278839675825	1024.611636605902	467.166087906093	336.647989108788	973.372687008402	406.216905929595	328.378210846523	850.062082300557	326.799240705210	278.212339977442	870.780916079473	199.030431788196	337.039253622126	1098.972713092553	407.582515873838	587.850623578444	1026.027128768340	306.591054614952	651.823681377990	1069.229227242409	208.794622145013	594.730047771444	937.404369404799	43.764290224260	570.458197437007	1108.021995226879	98.362396689801	606.698186955145	1020.564932523736	37.602509516801	645.300417893199	1228.529499363351	45.659645954591	635.055078733936	710.250378165330	71.437892662114	377.413511925369	781.076002504653	50.500033894275	297.887324562983	873.446216890117	101.060828644262	320.526742137492	990.832796550193	37.798139390594	293.557131543288	1028.598520016428	1083.719115818162	166.489800878067	1266.178425651381	975.561723686478	165.752786844548	913.907155578251	1110.478292544186	757.213704214102	1020.118418630666	871.266827992640	765.061784980324	
37	8.578000000000	827.647373753160	1000.819356628851	475.017119513470	1001.629771136891	1432.072933388932	294.590274805122	1093.066559571323	1372.850012309649	465.986854178234	989.923442632327	1444.570900969379	629.974063549432	969.041190954367	1496.484525550182	448.647158302931	1051.393020480356	945.089382758355	609.655770759967	1055.494560865755	966.050856692026	333.620949594784	1108.238092224834	747.717375179446	584.458430901307	1032.283363384608	635.113464440182	645.009550750859	1117.885637283377	585.459193021088	570.287130143590	1125.421959492326	496.321737691553	580.428405315252	1073.777909600452	739.294426452900	352.483303398752	970.123904495635	635.390066315975	282.660728856977	1044.857154837247	544.073826267121	339.044689288490	1034.211372285056	466.272073699749	337.082376769555	980.461456664463	405.935143605065	328.994532954693	854.551281060501	330.510781531684	279.283158338193	872.062536475641	201.817737487814	336.691868880778	1095.122316567299	407.216511366103	588.729714000073	1022.270774205916	306.243675526390	652.670349706405	1064.763876621422	208.515489285133	594.944158240738	932.226400792505	43.788213021495	570.539982299436	1102.876208636577	98.195176332744	606.853005432283	1015.391404328031	37.572805419196	645.441331353725	1223.425313155731	45.242502287271	635.295617065573	707.822883416550	79.597014879414	376.820145123166	777.695679857526	55.331247164396	297.554989220712	871.809636037106	102.648230564851	319.590744135553	986.037032249904	37.372943662232	293.523452396843	1026.297687872657	1084.062905126768	170.021985052582	1260.802568106225	968.784755283958	168.110456386757	920.394469515038	1110.693434543529	762.306660323924	1035.948143883352	875.932290289129	767.387784079446	
38	8.591000000000	827.978126586873	1001.604751903451	479.076858845424	1001.511255820872	1432.567513955335	297.794088421782	1094.096164143433	1373.152332030544	468.529561419684	992.273787622094	1445.081837569903	633.174936656358	969.858585763660	1496.914205439654	451.952839136150	1052.438155938061	945.391008454080	612.404577561782	1054.983360401275	966.566330182349	336.432306742916	1107.236402274831	746.943083317675	587.370041020411	1029.477106810383	634.878956702028	646.994200664122	1114.718453476473	584.710954780697	572.223036017101	1121.158411481309	495.795610431177	581.343139388538	1077.386613617033	740.805125711465	355.318774830066	977.343058798083	634.912361154375	284.702990333937	1054.771795291129	544.827008016893	340.843431862050	1044.914601576566	465.644832453098	337.685907095706	988.743809830146	405.808518536462	329.683854106071	860.339993978456	334.596226393114	280.281898874600	874.297385102721	205.122215566848	336.356501125786	1090.966152198219	406.843034895199	589.531296817142	1018.240700901591	305.859509336289	653.458213510810	1060.101151476225	208.218729506194	595.106712364020	926.930282750026	43.768173317459	570.606347407633	1097.620009268959	97.985937137191	606.936487063708	1010.108278881585	37.514530950020	645.550492741734	1218.211177453360	44.812101398595	635.458566050223	706.226485058398	89.200249729712	376.181328598066	774.858353394505	61.349469818472	297.173379896331	870.789378021600	104.697680997228	318.688704868669	981.216761475453	36.838361102583	293.529796791852	1023.722311348397	1084.227206118581	173.623697497703	1254.649533132388	961.342336601292	170.315103628556	927.091056664664	1110.946879765393	767.484534665013	1052.177857476874	881.255266056824	769.504238005844	
39	8.604000000000	828.075028927759	1002.313112861588	483.147512141598	1001.193179745329	1432.907209387302	300.942596962808	1095.085622026581	1373.242991993470	470.912716939995	994.828676343267	1445.440975361534	636.325155131796	970.703841226412	1497.220506856393	455.202589472058	1053.316746489409	945.548894582120	614.923318550379	1054.081930399646	966.901923537234	339.034643242931	1105.951198780557	746.089263732848	589.912553288991	1026.585930907428	634.638419727488	648.878343188440	1111.281877182885	583.961503226844	573.903816891804	1116.655217861393	495.271124808236	582.140595278570	1081.217640426477	742.551746813650	358.045280975545	985.285176497118	634.508891695857	286.616605571179	1065.503202446736	545.926680699003	342.651449527292	1056.579189070611	465.408148013735	338.480668915869	998.130588761761	405.920766523832	330.465194485042	867.390635524138	339.079546271312	281.201408420921	877.488344539165	208.995664805029	336.069043503126	1086.608338610493	406.470350889819	590.288784042843	1014.030076546674	305.456116294459	654.224357195311	1055.314282268606	207.918125155010	595.249255123948	921.567310712761	43.716477977324	570.678120007281	1092.304901516033	97.763788431126	606.977678260817	1004.765057219263	37.439914864664	645.645038459066	1212.933606305657	44.397774137018	635.561055209321	705.575323317419	100.299616954025	375.519732430222	772.660039319107	68.667876197119	296.758791791478	870.408710619680	107.307135448300	317.874061894768	976.369074053745	36.154744544026	293.583438791482	1020.866621946292	1084.172368039986	177.314666862393	1247.665954524081	953.256390004293	172.348997877451	934.041523069239	1111.193467577952	772.708955509745	1068.756032012264	887.218917745464	771.371849234151	
40	8.617000000000	827.931811211349	1002.922534238187	487.186002528498	1000.687170105320	1433.085525465448	304.001165100978	1096.018848574048	1373.109907656602	473.110239681077	997.554766252530	1445.630488012747	639.388123268572	971.571912261746	1497.400553755499	458.362646320548	1054.001958863743	945.567838072061	617.193367451344	1052.784828472485	967.030824269697	341.411125392412	1104.438214832963	745.215516754265	592.014491600240	1023.770506413352	634.422023629618	650.687344303291	1107.688663457370	583.239411923560	575.312931624118	1112.033815201039	494.758749024511	582.861672740132	1085.178356097437	744.573617579209	360.634718660428	993.793140610248	634.290772353338	288.382591757776	1076.824126426558	547.472498337060	344.444177770591	1069.010340364249	465.684020587995	339.459367573113	1008.468915201008	406.362617801633	331.341288273141	875.589910241731	343.976323350145	282.039527349057	881.596841988955	213.469995597091	335.866988730538	1082.147856091803	406.104115309683	591.028477724683	1009.721917182217	305.049583872610	654.994056487483	1050.469299369056	207.625272564539	595.397053943401	916.181962032961	43.645961329789	570.768643833223	1086.974130649824	97.551324927272	607.002682428293	999.403084707172	37.359172134632	645.737435942136	1207.631606146767	44.021650565345	635.621858298515	705.954116035732	112.848695675778	374.870809979089	771.187603295545	77.319058289946	296.339822945807	870.675710145207	110.553639904640	317.201154601268	971.516647011865	35.302112243549	293.693484968291	1017.724574940239	1083.873544081367	181.108414564554	1239.795352489694	944.568725797239	174.208530003613	941.297498027294	1111.401759772819	777.937713357210	1085.628621648694	893.807672854008	772.949149614931	
41	8.630000000000	827.551987379817	1003.423838992714	491.156753821079	1000.011237384040	1433.108323552367	306.932153201697	1096.878789457236	1372.763141566274	475.099455476593	1000.403197289433	1445.651325738764	642.323960626610	972.455521060070	1497.464359736990	461.395463013539	1054.475693277961	945.461846690883	619.211162842701	1051.102687586873	966.947395959596	343.565264933260	1102.755061965854	744.369168743858	593.664545770641	1021.133159145609	634.245064721325	652.437546099418	1104.036469206249	582.564277585542	576.462436027059	1107.400425801521	494.265728133928	583.538921401497	1089.160607517635	746.904554556578	363.076053490287	1002.666489354664	634.370940011943	289.989429863396	1088.470259567993	549.554502671084	346.194701441050	1081.972006388847	466.578803417507	340.583412116613	1019.552064447579	407.221852738928	332.296018229682	884.755599146620	349.285282136173	282.798204289562	886.547064339369	218.544605588550	335.784060417561	1077.667941870263	405.747335376635	591.765737095656	1005.381686429106	304.653412656858	655.778677950311	1045.618355007195	207.348586464843	595.566079969084	910.807168925727	43.568318703893	570.883839240240	1081.658762676153	97.363692753569	607.031464383537	994.052024980797	37.279963919666	645.834879653650	1202.333286167424	43.697540855991	635.658892988011	707.408197312412	126.677837489584	374.280152748020	770.515461628509	87.226998296696	295.955679065646	871.590021193554	114.474935039600	316.718468041996	966.727058262418	34.290343809370	293.869844776198	1014.292673029299	1083.324346054115	185.008729808899	1230.981201604186	935.344187607645	175.905277403810	948.908974866242	1111.559482833683	783.122919794464	1102.734375600513	901.010788406979	774.191355056424	
